<?xml version="1.0" encoding="utf-8"?>
<!-- Generator: Adobe Illustrator 24.3.0, SVG Export Plug-In . SVG Version: 6.00 Build 0)  -->
<svg version="1.1" xmlns="http://www.w3.org/2000/svg" xmlns:xlink="http://www.w3.org/1999/xlink" x="0px" y="0px"
	 viewBox="0 0 841.9 595.3" style="enable-background:new 0 0 841.9 595.3;" xml:space="preserve">
<style type="text/css">
	.st0{display:none;}
	.st1{fill:url(#SVGID_1_);}
	.st2{fill:url(#SVGID_2_);}
	.st3{fill:url(#SVGID_3_);}
	.st4{fill:url(#SVGID_4_);}
	.st5{fill:#A77D52;}
	.st6{font-family:'HindSiliguri-Regular';}
	.st7{font-size:38.4073px;}
</style>
<g id="Layer_1" class="st0">
	
		<image style="display:inline;overflow:visible;opacity:0.5;" width="1280" height="985" xlink:href="../../../../../../brouchure/img/photo_2023-11-28_19-46-56.jpg"  transform="matrix(0.6001 0 0 0.6001 961.4708 -593.4316)">
	</image>
</g>
<g id="Layer_2">
	<g>
		<g>
			<linearGradient id="SVGID_1_" gradientUnits="userSpaceOnUse" x1="306.7182" y1="309.4034" x2="306.7182" y2="213.3604">
				<stop  offset="0" style="stop-color:#996632"/>
				<stop  offset="5.191175e-02" style="stop-color:#A06D33"/>
				<stop  offset="0.1297" style="stop-color:#B58233"/>
				<stop  offset="0.1883" style="stop-color:#CB9831"/>
				<stop  offset="0.3047" style="stop-color:#EAD379"/>
				<stop  offset="0.3626" style="stop-color:#FBF49C"/>
				<stop  offset="0.5235" style="stop-color:#FFCC66"/>
				<stop  offset="0.6665" style="stop-color:#FFCC66"/>
				<stop  offset="0.8184" style="stop-color:#CB9831"/>
				<stop  offset="1" style="stop-color:#986828"/>
			</linearGradient>
			<path class="st1" d="M385.3,309.4h-35.7l-43.8-62.6l-43.8,62.6h-33.8l60.7-86.7c8.7-12.4,27-12.4,35.7,0l34.5,49.3L385.3,309.4z"
				/>
			<linearGradient id="SVGID_2_" gradientUnits="userSpaceOnUse" x1="309.5401" y1="309.4034" x2="309.5401" y2="285.7654">
				<stop  offset="0" style="stop-color:#996632"/>
				<stop  offset="5.191175e-02" style="stop-color:#A06D33"/>
				<stop  offset="0.1297" style="stop-color:#B58233"/>
				<stop  offset="0.1883" style="stop-color:#CB9831"/>
				<stop  offset="0.3047" style="stop-color:#EAD379"/>
				<stop  offset="0.3626" style="stop-color:#FBF49C"/>
				<stop  offset="0.5235" style="stop-color:#FFCC66"/>
				<stop  offset="0.6665" style="stop-color:#FFCC66"/>
				<stop  offset="0.8184" style="stop-color:#CB9831"/>
				<stop  offset="1" style="stop-color:#986828"/>
			</linearGradient>
			<polygon class="st2" points="343.7,309.4 275.4,309.4 291.8,285.8 324.9,285.8 			"/>
			<linearGradient id="SVGID_3_" gradientUnits="userSpaceOnUse" x1="443.9366" y1="310.9317" x2="443.9366" y2="213.4351">
				<stop  offset="0" style="stop-color:#996632"/>
				<stop  offset="5.191175e-02" style="stop-color:#A06D33"/>
				<stop  offset="0.1297" style="stop-color:#B58233"/>
				<stop  offset="0.1883" style="stop-color:#CB9831"/>
				<stop  offset="0.3047" style="stop-color:#EAD379"/>
				<stop  offset="0.3626" style="stop-color:#FBF49C"/>
				<stop  offset="0.5235" style="stop-color:#FFCC66"/>
				<stop  offset="0.6665" style="stop-color:#FFCC66"/>
				<stop  offset="0.8184" style="stop-color:#CB9831"/>
				<stop  offset="1" style="stop-color:#986828"/>
			</linearGradient>
			<path class="st3" d="M524.7,309.4H497l-15.9-59l-28.8,54.9c-0.8,0.9-5.8,5.7-13.6,5.6c-7.5-0.1-12.2-4.7-13.1-5.6
				c-9.9-18.3-19.8-36.5-29.6-54.8L383.6,300l0,0l-20.4-27.9l0.3-0.9l14.4-48.7c3.1-5.6,9-9,15.3-8.9c6.1,0.1,11.8,3.5,14.8,8.9
				c10.6,18.4,21.1,36.9,31.7,55.4l30.8-55.4c2.8-5.6,8.5-9.1,14.8-9.1c6.3,0,12,3.5,14.8,9.1c1,3.2,1.9,6.5,2.9,9.7
				c-5.8,8-9.3,17.6-9.7,28C492.4,281.9,505.4,301.1,524.7,309.4z"/>
			<linearGradient id="SVGID_4_" gradientUnits="userSpaceOnUse" x1="558.5193" y1="309.4587" x2="558.5193" y2="214.8959">
				<stop  offset="0" style="stop-color:#996632"/>
				<stop  offset="5.191175e-02" style="stop-color:#A06D33"/>
				<stop  offset="0.1297" style="stop-color:#B58233"/>
				<stop  offset="0.1883" style="stop-color:#CB9831"/>
				<stop  offset="0.3047" style="stop-color:#EAD379"/>
				<stop  offset="0.3626" style="stop-color:#FBF49C"/>
				<stop  offset="0.5235" style="stop-color:#FFCC66"/>
				<stop  offset="0.6665" style="stop-color:#FFCC66"/>
				<stop  offset="0.8184" style="stop-color:#CB9831"/>
				<stop  offset="1" style="stop-color:#986828"/>
			</linearGradient>
			<path class="st4" d="M546.1,284.7h73.8l-19.5,24.7h-59.5c-4.1-0.4-7.9-1.3-11.6-2.6c-1.6-0.6-3.2-1.2-4.7-2
				c-16.8-8.1-28-25.5-27.2-44.5c0.3-8.4,2.9-16.3,7.2-23.1c0.9-1.4,1.9-2.8,2.9-4.1c7.9-10,19.8-16.9,33.5-18.2h79l-19.1,24.7
				c-18.2-0.1-36.5-0.3-54.7-0.4c-11.1,1.5-19.6,10.5-20.3,21.2C524.9,272.1,533.7,283,546.1,284.7z"/>
		</g>
		<text transform="matrix(1 0 0 1 203.2567 362.7501)" class="st5 st6 st7">ARTIQ metal coating  L.L.C</text>
	</g>
</g>
</svg>
