<svg id="Layer_2" data-name="Layer 2" xmlns="http://www.w3.org/2000/svg" xmlns:xlink="http://www.w3.org/1999/xlink" viewBox="0 0 435.38 168.55"><defs><style>.cls-1{fill:url(#New_Gradient_Swatch_5);}.cls-2{fill:url(#New_Gradient_Swatch_5-2);}.cls-3{fill:url(#New_Gradient_Swatch_5-3);}.cls-4{fill:url(#New_Gradient_Swatch_5-4);}.cls-5{font-size:38.41px;fill:#a77d52;font-family:HindSiliguri-Regular, Hind Siliguri;letter-spacing:0.01em;}</style><linearGradient id="New_Gradient_Swatch_5" x1="115.7" y1="108.34" x2="115.7" y2="12.3" gradientUnits="userSpaceOnUse"><stop offset="0" stop-color="#996632"/><stop offset="0.05" stop-color="#a06d32"/><stop offset="0.13" stop-color="#b58231"/><stop offset="0.19" stop-color="#cb9831"/><stop offset="0.3" stop-color="#ebd578"/><stop offset="0.36" stop-color="#fbf49c"/><stop offset="0.52" stop-color="#fc6"/><stop offset="0.67" stop-color="#fc6"/><stop offset="0.82" stop-color="#cb9831"/><stop offset="1" stop-color="#986828"/></linearGradient><linearGradient id="New_Gradient_Swatch_5-2" x1="106.28" y1="96.04" x2="106.28" y2="72.4" xlink:href="#New_Gradient_Swatch_5"/><linearGradient id="New_Gradient_Swatch_5-3" x1="252.92" y1="109.87" x2="252.92" y2="12.37" xlink:href="#New_Gradient_Swatch_5"/><linearGradient id="New_Gradient_Swatch_5-4" x1="367.5" y1="108.4" x2="367.5" y2="13.83" xlink:href="#New_Gradient_Swatch_5"/></defs><path class="cls-1" d="M194.28,108.34h-35.7L114.75,45.7,70.9,108.34H37.11L97.84,21.6a21.8,21.8,0,0,1,35.72,0l34.53,49.32Z" transform="translate(-12.24 -12.3)"/><polygon class="cls-2" points="140.41 96.04 72.15 96.04 88.52 72.41 121.66 72.41 140.41 96.04"/><path class="cls-3" d="M333.64,108.34H306L290,49.34l-28.81,54.94a18.72,18.72,0,0,1-26.69,0q-14.82-27.4-29.64-54.8L192.56,98.94h0L172.19,71.08l.26-.87,14.42-48.72a17.15,17.15,0,0,1,30.09,0q15.82,27.67,31.66,55.36l30.83-55.36a16.56,16.56,0,0,1,29.59,0c1,3.24,1.92,6.5,2.89,9.74a50.62,50.62,0,0,0-9.73,28A51.6,51.6,0,0,0,333.64,108.34Z" transform="translate(-12.24 -12.3)"/><path class="cls-4" d="M355,83.66h73.81L409.35,108.4H349.8a48.63,48.63,0,0,1-16.37-4.57c-16.79-8.11-27.95-25.48-27.25-44.49A46.43,46.43,0,0,1,313.4,36.2a49.87,49.87,0,0,1,2.93-4.14A48.48,48.48,0,0,1,349.8,13.83h79L409.77,38.58,355,38.16c-11.13,1.5-19.62,10.54-20.34,21.18C333.91,71,342.71,81.94,355,83.66Z" transform="translate(-12.24 -12.3)"/><text class="cls-5" transform="translate(0 149.39)"><tspan xml:space="preserve">ARTIQ metal coating  L.L.C</tspan></text></svg>