<svg id="Layer_2" data-name="Layer 2" xmlns="http://www.w3.org/2000/svg" xmlns:xlink="http://www.w3.org/1999/xlink" viewBox="0 0 841.89 595.28"><defs><style>.cls-1{fill:url(#New_Gradient_Swatch_5);}.cls-2{fill:url(#New_Gradient_Swatch_5-2);}.cls-3{fill:url(#New_Gradient_Swatch_5-3);}.cls-4{fill:url(#New_Gradient_Swatch_5-4);}.cls-5{font-size:38.41px;fill:#a77d52;font-family:HindSiliguri-Regular, Hind Siliguri;letter-spacing:0.01em;}</style><linearGradient id="New_Gradient_Swatch_5" x1="306.72" y1="309.4" x2="306.72" y2="213.36" gradientUnits="userSpaceOnUse"><stop offset="0" stop-color="#996632"/><stop offset="0.05" stop-color="#a06d32"/><stop offset="0.13" stop-color="#b58231"/><stop offset="0.19" stop-color="#cb9831"/><stop offset="0.3" stop-color="#ebd578"/><stop offset="0.36" stop-color="#fbf49c"/><stop offset="0.52" stop-color="#fc6"/><stop offset="0.67" stop-color="#fc6"/><stop offset="0.82" stop-color="#cb9831"/><stop offset="1" stop-color="#986828"/></linearGradient><linearGradient id="New_Gradient_Swatch_5-2" x1="309.54" y1="309.4" x2="309.54" y2="285.77" xlink:href="#New_Gradient_Swatch_5"/><linearGradient id="New_Gradient_Swatch_5-3" x1="443.94" y1="310.93" x2="443.94" y2="213.44" xlink:href="#New_Gradient_Swatch_5"/><linearGradient id="New_Gradient_Swatch_5-4" x1="558.52" y1="309.46" x2="558.52" y2="214.9" xlink:href="#New_Gradient_Swatch_5"/></defs><path class="cls-1" d="M385.3,309.4H349.6l-43.83-62.63L261.92,309.4H228.14l60.72-86.74a21.8,21.8,0,0,1,35.72,0L359.11,272Z"/><polygon class="cls-2" points="343.67 309.4 275.41 309.4 291.78 285.76 324.91 285.76 343.67 309.4"/><path class="cls-3" d="M524.66,309.4H497l-15.93-59-28.81,54.93a18.72,18.72,0,0,1-26.69,0q-14.82-27.4-29.64-54.8L383.59,300h0l-20.38-27.87.26-.87,14.42-48.72a17.15,17.15,0,0,1,30.09,0q15.82,27.67,31.66,55.36l30.83-55.36a16.57,16.57,0,0,1,29.59,0q1.44,4.88,2.89,9.74a50.66,50.66,0,0,0-9.73,28A51.59,51.59,0,0,0,524.66,309.4Z"/><path class="cls-4" d="M546.05,284.73h73.82l-19.5,24.73H540.82a47.88,47.88,0,0,1-11.62-2.59,48.45,48.45,0,0,1-4.75-2c-16.79-8.1-28-25.48-27.24-44.49a46.32,46.32,0,0,1,7.21-23.14,49.87,49.87,0,0,1,2.93-4.14,48.49,48.49,0,0,1,33.47-18.22h79l-19.08,24.74-54.74-.42c-11.13,1.5-19.62,10.55-20.34,21.18C524.93,272.1,533.74,283,546.05,284.73Z"/><text class="cls-5" transform="translate(203.26 362.75)"><tspan xml:space="preserve">ARTIQ metal coating  L.L.C</tspan></text></svg>